Coordinates
version=1
nRows=19
nColumns=33
inDegrees=yes

Units are S.I. units (second, meters, Newtons, ...)
Angles are in degrees.

endheader
time	ground_thorax_rot_x	ground_thorax_rot_y	ground_thorax_rot_z	ground_thorax_tx	ground_thorax_ty	ground_thorax_tz	clav_prot_r	clav_elev_r	scapula_abduction_r	scapula_elevation_r	scapula_upward_rot_r	scapula_winging_r	shoulder_elv_r	plane_of_elev_r	axial_rot_r	elbow_flexion_r	pro_sup_r	wrist_flex_r	wrist_dev_r	clav_prot_l	clav_elev_l	scapula_abduction_l	scapula_elevation_l	scapula_upward_rot_l	scapula_winging_l	shoulder_elv_l	plane_of_elev_l	axial_rot_l	elbow_flexion_l	pro_sup_l	wrist_flex_l	wrist_dev_l	
9.4900	27.735213	29.723540	43.642608	-3.873519	829.377397	-47.455810	13.521316	34.571988	30.547401	45.000000	-44.973563	634.819788	1511.180916	24.350217	180.000000	3598.294687	-186.080347	14.433817	15.347922	-8.424878	-45.000000	-38.210795	45.000000	-45.000000	5500.412722	-4047.791658	131.924876	-112.050969	2870.729311	46.975874	14.849693	-17.833856	
9.5000	27.542217	29.986933	44.019455	-0.078340	828.095595	-47.347875	13.436042	34.593590	30.578052	45.000000	-44.957369	635.038531	1511.152200	24.328837	180.000000	3598.296506	-185.209314	14.338810	15.290169	-8.492056	-45.000000	-38.139534	45.000000	-45.000000	5500.230373	-4047.943306	131.958431	-112.188587	2870.681398	47.079823	14.793626	-17.627969	
9.5100	27.355656	30.245510	44.385054	3.724465	826.770313	-47.233245	13.376810	34.622823	30.610159	45.000000	-44.938864	635.257926	1511.113516	24.301684	180.000000	3598.316162	-184.315936	14.248924	15.226196	-8.593604	-45.000000	-38.050642	45.000000	-45.000000	5500.043202	-4048.102651	132.001805	-112.358976	2870.628838	47.164966	14.732655	-17.423584	
9.5200	27.180787	30.494008	44.731528	7.524288	825.404235	-47.109685	13.341195	34.661296	30.644559	45.000000	-44.916987	635.479828	1511.065571	24.268264	180.000000	3598.351806	-183.410224	14.162456	15.160633	-8.729434	-45.000000	-37.944825	45.000000	-45.000000	5499.850198	-4048.269682	132.053810	-112.554540	2870.571553	47.232215	14.667030	-17.221040	
9.5300	27.019081	30.731290	45.058895	11.310788	824.000264	-46.975954	13.349213	34.712601	30.696964	45.000000	-44.898965	635.696769	1510.999305	24.228493	180.000000	3598.409639	-182.502457	14.078201	15.089534	-8.913474	-45.000000	-37.818842	45.000000	-45.000000	5499.649088	-4048.440896	132.117707	-112.770608	2870.507358	47.283049	14.593908	-17.018195	
9.5400	26.870319	30.956229	45.365797	15.074765	822.561779	-46.831487	13.384242	34.773677	30.759480	45.000000	-44.886177	635.914196	1510.922175	24.182201	180.000000	3598.484058	-181.603476	13.994965	15.018885	-9.132047	-45.000000	-37.678548	45.000000	-45.000000	5499.443210	-4048.618361	132.191316	-113.007020	2870.438436	47.320380	14.514078	-16.818542	
9.5500	26.731928	31.170102	45.649044	18.807779	821.092612	-46.676336	13.413413	34.837052	30.819508	45.000000	-44.877784	636.147868	1510.845780	24.121426	180.000000	3598.570710	-180.723020	13.910552	14.959931	-9.358443	-45.000000	-37.537449	45.000000	-45.000000	5499.239662	-4048.809124	132.268452	-113.275309	2870.371598	47.347570	14.430559	-16.631213	
9.5600	26.593606	31.381908	45.924235	22.502328	819.596525	-46.510949	13.421106	34.892691	30.858759	45.000000	-44.879626	636.395017	1510.780196	24.054337	180.000000	3598.661349	-179.875525	13.824230	14.911078	-9.571593	-45.000000	-37.399798	45.000000	-45.000000	5499.045727	-4049.013225	132.348052	-113.584262	2870.304851	47.371320	14.343723	-16.457777	
9.5700	26.460579	31.587852	46.186911	26.151311	818.076791	-46.335907	13.425491	34.947242	30.888308	45.000000	-44.892714	636.648310	1510.717229	23.986415	180.000000	3598.759682	-179.060888	13.736317	14.864506	-9.788983	-45.000000	-37.258242	45.000000	-45.000000	5498.856217	-4049.225277	132.433721	-113.925323	2870.237323	47.397335	14.252207	-16.298689	
9.5800	26.335169	31.789057	46.442158	29.747673	816.535661	-46.151676	13.444285	35.005653	30.914680	45.000000	-44.917322	636.893184	1510.651055	23.925064	180.000000	3598.867474	-178.277308	13.648307	14.810813	-10.021911	-45.000000	-37.103725	45.000000	-45.000000	5498.667411	-4049.441141	132.529921	-114.289719	2870.164510	47.432043	14.155442	-16.152298	
9.5900	26.225411	31.975618	46.671294	33.284094	814.974085	-45.958480	13.458103	35.070774	30.934246	45.000000	-44.941487	637.144533	1510.587671	23.864163	180.000000	3598.981329	-177.514544	13.560634	14.759992	-10.260762	-45.000000	-36.943700	45.000000	-45.000000	5498.477992	-4049.664617	132.631725	-114.677247	2870.094833	47.478064	14.056813	-16.025575	
9.6000	26.126961	32.153558	46.885426	36.753141	813.391644	-45.756340	13.489199	35.141643	30.946979	45.000000	-44.967293	637.390454	1510.524217	23.807108	180.000000	3599.099694	-176.771684	13.474970	14.705323	-10.513981	-45.000000	-36.770736	45.000000	-45.000000	5498.286989	-4049.892824	132.743148	-115.088509	2870.024836	47.539858	13.954162	-15.912869	
9.6100	26.045645	32.314840	47.071103	40.147896	811.786905	-45.545245	13.527487	35.218684	30.948773	45.000000	-44.986219	637.641019	1510.464926	23.752758	180.000000	3599.220786	-176.040887	13.391268	14.652601	-10.777722	-45.000000	-36.591060	45.000000	-45.000000	5498.093190	-4050.126502	132.862656	-115.520604	2869.961190	47.618063	13.847214	-15.813318	
9.6200	25.974231	32.466289	47.240200	43.462922	810.157971	-45.325373	13.570203	35.294795	30.935358	45.000000	-44.998833	637.892934	1510.410292	23.697347	180.000000	3599.345883	-175.324322	13.309121	14.602059	-11.045668	-45.000000	-36.406528	45.000000	-45.000000	5497.901034	-4050.366209	132.988446	-115.975940	2869.904647	47.713733	13.736058	-15.722726	
9.6300	25.907827	32.608346	47.392094	46.695087	808.503279	-45.097276	13.586164	35.361379	30.895670	45.000000	-44.999735	638.158352	1510.368713	23.635259	180.000000	3599.473400	-174.624304	13.227120	14.562180	-11.295825	-45.000000	-36.229579	45.000000	-45.000000	5497.717299	-4050.615873	133.113030	-116.461159	2869.862489	47.825326	13.623795	-15.642588	
9.6400	25.839264	32.749936	47.543913	49.843820	806.822259	-44.861967	13.600622	35.416649	30.838712	45.000000	-45.000000	638.418362	1510.329784	23.572519	180.000000	3599.607930	-173.950139	13.145966	14.519728	-11.541452	-45.000000	-36.050278	45.000000	-45.000000	5497.541174	-4050.868446	133.240724	-116.970755	2869.827834	47.952839	13.508748	-15.563787	
9.6500	25.771510	32.886111	47.690742	52.910868	805.115770	-44.620888	13.610081	35.465218	30.771784	45.000000	-45.000000	638.670416	1510.288486	23.514923	180.000000	3599.753551	-173.304752	13.065656	14.471603	-11.784681	-45.000000	-35.869357	45.000000	-45.000000	5497.371854	-4051.119398	133.370584	-117.496241	2869.800003	48.093317	13.393648	-15.484925	
9.6600	25.704705	33.016128	47.830318	55.899157	803.386318	-44.375862	13.608519	35.507800	30.695994	45.000000	-45.000000	638.920324	1510.245041	23.458148	180.000000	3599.910517	-172.695263	12.985470	14.421228	-12.020802	-45.000000	-35.689977	45.000000	-45.000000	5497.210375	-4051.369637	133.501494	-118.038344	2869.780190	48.243249	13.281263	-15.407416	
9.6700	25.641331	33.138555	47.955599	58.811892	801.637809	-44.128941	13.587884	35.549424	30.613611	45.000000	-45.000000	639.172396	1510.202940	23.398845	180.000000	3600.073712	-172.130096	12.906585	14.374848	-12.244715	-45.000000	-35.516541	45.000000	-45.000000	5497.058941	-4051.621129	133.628645	-118.600527	2869.770663	48.398769	13.176835	-15.336783	
